<svg width="24" height="24" viewBox="0 0 24 24" fill="none" xmlns="http://www.w3.org/2000/svg">
<path d="M3.82023 20.0678C5.52488 21.7715 10.5183 19.5419 14.9738 15.0865C19.4291 10.6311 21.6587 5.63675 19.955 3.93304C18.2503 2.22746 13.256 4.45798 8.80059 8.91339C4.34517 13.3688 2.11559 18.3623 3.82023 20.0678Z" stroke="black" stroke-width="1.44" stroke-linecap="round" stroke-linejoin="round"/>
<path d="M19.9545 20.0678C18.2499 21.7715 13.2564 19.5419 8.80101 15.0865C4.34559 10.6311 2.11602 5.63675 3.81973 3.93304C5.52437 2.22746 10.5188 4.45798 14.9741 8.91339C19.4296 13.3688 21.6591 18.3623 19.9545 20.0678Z" stroke="black" stroke-width="1.44" stroke-linecap="round" stroke-linejoin="round"/>
<path d="M11.8898 11.9862V12.0507M12.1515 12C12.1515 12.1454 12.0335 12.2632 11.8881 12.2632C11.7428 12.2632 11.625 12.1454 11.625 12C11.625 11.8546 11.7428 11.7368 11.8881 11.7368C12.0335 11.7368 12.1515 11.8546 12.1515 12Z" stroke="black" stroke-width="1.44" stroke-linecap="round" stroke-linejoin="round"/>
</svg>
