<?xml version="1.0" encoding="UTF-8"?>
<svg id="Calque_2" data-name="Calque 2" xmlns="http://www.w3.org/2000/svg" viewBox="0 0 92.6 92.6">
  <defs>
    <style>
      .cls-1 {
        fill: #000;
        stroke-width: 0px;
      }
    </style>
  </defs>
  <g id="Calque_1-2" data-name="Calque 1">
    <path class="cls-1" d="M83.99.54c-.72-.72-1.89-.72-2.62,0l-5.41,5.41-1.38-1.38c-.72-.72-1.89-.72-2.62,0-.72.72-.72,1.89,0,2.62l1.38,1.38-2.72,2.72c-.72.72-.72,1.89,0,2.62l.04.04-19.93,19.93-.34-.32c-3.02-2.85-7.09-4.11-11.19-3.45-4.1.66-7.57,3.13-9.54,6.79-1.26,2.33-3.45,4.03-6.03,4.66l-4.25,1.04c-9.03,2.2-15.91,8.85-18.42,17.79-2.51,8.94-.08,18.2,6.48,24.77,4.86,4.86,11.2,7.45,17.79,7.45,2.31,0,4.66-.32,6.98-.97,8.95-2.51,15.59-9.39,17.79-18.42l1.04-4.25c.62-2.57,2.32-4.77,4.66-6.03,3.65-1.96,6.13-5.45,6.79-9.54.66-4.1-.6-8.18-3.45-11.19l-.32-.34,19.93-19.93.04.04c.36.36.84.54,1.31.54s.95-.18,1.31-.54l5.41-5.41,1.38,1.38c.36.36.84.54,1.31.54s.95-.18,1.31-.54c.72-.72.72-1.89,0-2.62l-1.38-1.38,2.72-2.72c.35-.35.54-.82.54-1.31s-.2-.96-.54-1.31L83.99.54h0ZM56.35,44.76c2.05,2.17,2.96,5.11,2.48,8.06-.47,2.95-2.25,5.45-4.89,6.87-3.25,1.75-5.62,4.82-6.5,8.41l-1.04,4.25c-1.88,7.71-7.55,13.59-15.19,15.73-7.64,2.14-15.55.07-21.15-5.54-5.61-5.61-7.68-13.52-5.54-21.15,2.14-7.64,8.02-13.32,15.73-15.19l4.25-1.04c3.59-.88,6.66-3.24,8.41-6.5,1.42-2.63,3.92-4.41,6.87-4.89,2.94-.48,5.89.43,8.06,2.48l.26.25-11.09,11.09s-.01.02-.02.03c-2.93-.43-5.93.54-8.04,2.66-1.79,1.79-2.77,4.16-2.77,6.68s.98,4.9,2.77,6.68c1.79,1.79,4.16,2.77,6.68,2.77s4.9-.98,6.68-2.77c2.12-2.12,3.09-5.12,2.66-8.04,0,0,.02-.01.03-.02l11.09-11.09.25.26ZM42.4,52.96c-.13.13-.21.29-.29.45-.73.4-1.14,1.23-.91,2.07.53,1.97-.04,4.1-1.48,5.55-2.18,2.17-5.96,2.17-8.13,0-1.09-1.09-1.68-2.53-1.68-4.07s.6-2.98,1.68-4.07c1.45-1.45,3.57-2.02,5.55-1.48.84.23,1.67-.18,2.07-.91.16-.08.31-.16.45-.29l33.64-33.64,2.76,2.76-33.64,33.64h0ZM80,18.05l-5.45-5.45,8.13-8.14,5.45,5.45-8.14,8.14h0ZM20.82,63.71c-.72-.72-1.89-.72-2.62,0l-4.03,4.03c-.35.35-.54.82-.54,1.31s.2.96.54,1.31l8.07,8.07c.35.35.82.54,1.31.54s.96-.2,1.31-.54l4.03-4.04c.72-.72.72-1.89,0-2.62l-8.07-8.06ZM23.54,74.5l-5.45-5.45,1.41-1.41,5.45,5.45-1.41,1.41Z"/>
  </g>
</svg>