<svg width="89" height="89" viewBox="0 0 89 89" fill="none" xmlns="http://www.w3.org/2000/svg">
<path d="M46.3047 17.1764C46.3047 18.9225 43.6836 18.9225 43.6836 17.1764C43.6836 15.4303 46.3047 15.4303 46.3047 17.1764Z" fill="black"/>
<path d="M52.7686 23.6414C52.7686 25.3914 50.1514 25.3914 50.1514 23.6414C50.1514 21.8953 52.7686 21.8953 52.7686 23.6414Z" fill="black"/>
<path d="M58.855 31.0354C59.2261 30.6604 59.3394 30.0979 59.1363 29.6096C58.9331 29.1174 58.4566 28.801 57.9254 28.801C57.398 28.801 56.9176 29.1174 56.7184 29.6096C56.5152 30.0979 56.6246 30.6604 56.9996 31.0354C57.5113 31.5471 58.3393 31.5471 58.855 31.0354Z" fill="black"/>
<path d="M65.3159 37.5004C65.6909 37.1254 65.8042 36.5629 65.6011 36.0707C65.398 35.5824 64.9214 35.2621 64.3902 35.2621C63.859 35.2621 63.3824 35.5824 63.1793 36.0707C62.9762 36.5629 63.0894 37.1254 63.4644 37.5004C63.7066 37.7465 64.0426 37.8871 64.3902 37.8871C64.7379 37.8871 65.0737 37.7465 65.3159 37.5004Z" fill="black"/>
<path d="M72.168 43.0394C72.168 44.7855 69.5469 44.7855 69.5469 43.0394C69.5469 41.2933 72.168 41.2933 72.168 43.0394Z" fill="black"/>
<path d="M35.3277 41.6294C35.7027 41.2544 35.812 40.6919 35.6089 40.2036C35.4058 39.7114 34.9292 39.395 34.4019 39.395C33.8707 39.395 33.3941 39.7114 33.191 40.2036C32.9879 40.6919 33.0973 41.2544 33.4723 41.6294C33.7184 41.8755 34.0504 42.0161 34.402 42.0161C34.7496 42.0161 35.0816 41.8755 35.3277 41.6294Z" fill="black"/>
<path d="M41.7847 48.0944C42.1597 47.7194 42.2691 47.153 42.0659 46.6647C41.8628 46.1764 41.3863 45.8561 40.855 45.8561C40.3277 45.8561 39.8511 46.1764 39.648 46.6647C39.4449 47.1529 39.5543 47.7194 39.9293 48.0944C40.1754 48.3405 40.5074 48.4772 40.8551 48.4772C41.2027 48.4772 41.5386 48.3405 41.7847 48.0944Z" fill="black"/>
<path d="M48.6436 53.6334C48.6436 55.3795 46.0225 55.3795 46.0225 53.6334C46.0225 51.8873 48.6436 51.8873 48.6436 53.6334Z" fill="black"/>
<path d="M37.6519 25.8324C37.6519 27.5785 35.0308 27.5785 35.0308 25.8324C35.0308 24.0863 37.6519 24.0863 37.6519 25.8324Z" fill="black"/>
<path d="M43.7335 33.2234C44.1085 32.8484 44.2179 32.2859 44.0148 31.7937C43.8156 31.3054 43.3351 30.9851 42.8078 30.9851C42.2765 30.9851 41.8 31.3054 41.5969 31.7937C41.3938 32.2859 41.5071 32.8484 41.8781 33.2234C42.3938 33.7312 43.2218 33.7312 43.7335 33.2234Z" fill="black"/>
<path d="M50.1948 39.6874C50.5737 39.3124 50.6831 38.7499 50.4839 38.2616C50.2808 37.7694 49.8003 37.4491 49.273 37.4491C48.7417 37.4491 48.2652 37.7694 48.0621 38.2616C47.859 38.7499 47.9722 39.3124 48.3472 39.6874C48.5933 39.9335 48.9254 40.0741 49.273 40.0741C49.6207 40.0741 49.9526 39.9335 50.1948 39.6874Z" fill="black"/>
<path d="M57.0469 45.2303C57.0469 46.9764 54.4258 46.9764 54.4258 45.2303C54.4258 43.4803 57.0469 43.4803 57.0469 45.2303Z" fill="black"/>
<path d="M63.5147 51.6914C63.5147 53.4375 60.8936 53.4375 60.8936 51.6914C60.8936 49.9453 63.5147 49.9453 63.5147 51.6914Z" fill="black"/>
<path d="M61.1167 15.9804C61.4917 15.6054 61.605 15.0389 61.4018 14.5507C61.1987 14.0624 60.7222 13.7421 60.1909 13.7421C59.6597 13.7421 59.1831 14.0624 58.98 14.5507C58.7769 15.0389 58.8902 15.6054 59.2652 15.9804C59.5113 16.2225 59.8433 16.3632 60.191 16.3632C60.5387 16.3632 60.8706 16.2225 61.1167 15.9804Z" fill="black"/>
<path d="M67.8897 21.4574C67.8897 23.2035 65.2686 23.2035 65.2686 21.4574C65.2686 19.7074 67.8897 19.7074 67.8897 21.4574Z" fill="black"/>
<path d="M74.2886 27.8554C74.2886 29.6015 71.6714 29.6015 71.6714 27.8554C71.6714 26.1093 74.2886 26.1093 74.2886 27.8554Z" fill="black"/>
<path d="M2.84729 85.8404C5.78089 88.7662 10.5309 88.7662 13.4643 85.8404L26.8163 72.5084L26.8124 72.5045C27.3007 72.024 27.5702 71.3678 27.5702 70.6842C27.5546 70.5084 27.5194 70.3326 27.4686 70.1646C31.6288 67.7427 36.1131 65.9107 40.7846 64.731C42.8393 65.0553 44.9135 65.2193 46.9916 65.2193C57.6246 65.149 67.9646 61.731 76.5426 55.4537C82.9137 51.274 87.1046 44.4847 87.9916 36.9187C88.5776 28.8406 84.5736 20.4387 76.0936 11.9537L76.0546 11.9147C67.5624 3.45766 59.1596 -0.526338 51.1166 0.0556621C43.5502 0.942382 36.7646 5.13376 32.5816 11.5007C24.9957 21.7857 21.6716 34.6027 23.2964 47.2777C22.1206 51.9379 20.2964 56.4105 17.8784 60.5667C17.7143 60.512 17.5424 60.4807 17.3666 60.4651C16.6831 60.4651 16.0269 60.7385 15.5464 61.2229L2.19435 74.5549C-0.73145 77.4924 -0.73145 82.2424 2.19435 85.1759L2.84729 85.8404ZM35.2533 13.5084V13.5045C38.8666 7.92638 44.7611 4.22327 51.3553 3.39147C51.7889 3.36022 52.2225 3.3446 52.66 3.3446C59.3514 3.3446 66.433 7.036 73.762 14.3646C81.5042 22.1185 85.168 29.6266 84.657 36.6966L84.6531 36.7005C83.8211 43.2943 80.1219 49.1845 74.5441 52.7985C64.8644 59.9001 52.8171 62.9895 40.9151 61.4235H40.8682C37.3018 60.9821 33.9502 59.4743 31.251 57.0993L30.8135 56.6657C28.5244 54.0407 27.0713 50.7907 26.6377 47.3337C26.6299 47.1814 26.6026 47.029 26.5518 46.8884C25.0987 35.0524 28.212 23.1114 35.2549 13.4934L35.2533 13.5084ZM28.4486 59.0004L29.0111 59.5668H29.015C30.6478 61.1137 32.5736 62.3168 34.6791 63.1059C31.4408 64.1997 28.3432 65.6684 25.4486 67.4848L20.5463 62.5825C22.3627 59.688 23.8275 56.5864 24.9174 53.3481C25.7026 55.4497 26.9057 57.3715 28.4486 59.0004ZM17.3626 64.1137L23.9212 70.6645L19.4837 75.1059L8.81569 72.6528L17.3626 64.1137ZM4.55059 76.9257L6.04279 75.4335L16.7108 77.8905L11.117 83.4803C9.48419 85.1092 6.84359 85.1092 5.21469 83.4803L4.54672 82.8123V82.8162C2.93342 81.1834 2.93338 78.5546 4.55059 76.9257Z" fill="black"/>
</svg>
