<?xml version="1.0" encoding="UTF-8"?>
<svg width="57px" height="60px" viewBox="0 0 57 60" version="1.1" xmlns="http://www.w3.org/2000/svg" xmlns:xlink="http://www.w3.org/1999/xlink">
    <!-- Generator: sketchtool 50.2 (55047) - http://www.bohemiancoding.com/sketch -->
    <title>9A19A804-FDAE-49ED-939A-BD2F264EFDA6</title>
    <desc>Created with sketchtool.</desc>
    <defs></defs>
    <g id="Symbols" stroke="none" stroke-width="1" fill="none" fill-rule="evenodd">
        <g id="adresse" fill-rule="nonzero">
            <g id="Shape">
                <path d="M34.9,44.2 C33.0309084,46.3894563 31.0270146,48.4601466 28.9,50.4 C26.7729854,48.4601466 24.7690916,46.3894563 22.9,44.2 C10.3,45 0.9,48.2 0.9,52 C0.9,55.8 13.4,60 28.9,60 C44.4,60 56.9,56.4 56.9,52 C56.9,47.6 47.5,45 34.9,44.2 Z" fill="#FD5F6F"></path>
                <path d="M28.9,8.8817842e-16 C18.9427206,0.055013432 10.899848,8.14256859 10.9,18.1 C10.9,28.1 17.7,38 23,44.2 C24.8690916,46.3894563 26.8729854,48.4601466 29,50.4 C31.1270146,48.4601466 33.1309084,46.3894563 35,44.2 C40.2,38.1 47,28.2 47,18.1 C47,13.2995815 45.0930412,8.69577571 41.6986327,5.30136726 C38.3042243,1.90695881 33.7004185,1.33226763e-15 28.9,8.8817842e-16 Z M28.9,24 C25.5862915,24 22.9,21.3137085 22.9,18 C22.9,14.6862915 25.5862915,12 28.9,12 C32.2137085,12 34.9,14.6862915 34.9,18 C34.9,21.3137085 32.2137085,24 28.9,24 Z" fill="#67AAF9"></path>
                <path d="M25,43.2 C19.7,37.1 12.9,27.2 12.9,17.1 C12.9013693,10.6142464 16.3728664,4.62496028 22,1.4 C15.2727538,4.22121946 10.8966208,10.8051313 10.9,18.1 C10.9,28.1 17.7,38 23,44.2 C24.8690916,46.3894563 26.8729854,48.4601466 29,50.4 L30.5,49 C28.5635146,47.1671647 26.7275036,45.2310077 25,43.2 Z" fill="#000032" opacity="0.2"></path>
                <path d="M28.9,50.4 C26.7729854,48.4601466 24.7690916,46.3894563 22.9,44.2 C13.7,44.8 6.2,46.6 2.8,49.1 C11.4483721,50.2620755 20.178957,50.6969323 28.9,50.4 Z" fill="#000032" opacity="0.2"></path>
            </g>
        </g>
    </g>
</svg>